<?xml version="1.0" encoding="UTF-8" standalone="no"?>
<!DOCTYPE svg PUBLIC "-//W3C//DTD SVG 1.1//EN" "http://www.w3.org/Graphics/SVG/1.1/DTD/svg11.dtd">
<svg version="1.1" xmlns="http://www.w3.org/2000/svg" xmlns:xlink="http://www.w3.org/1999/xlink" preserveAspectRatio="xMidYMid meet" viewBox="0 0 200 200" width="200" height="200"><defs><path d="M188.39 97.15C188.39 145.93 148.78 185.54 100 185.54C51.22 185.54 11.61 145.93 11.61 97.15C11.61 48.36 51.22 8.76 100 8.76C148.78 8.76 188.39 48.36 188.39 97.15Z" id="h233RgQUGS"></path><path d="M102.8 67.36C102.8 84.24 88.32 97.94 70.49 97.94C52.66 97.94 38.18 84.24 38.18 67.36C38.18 50.48 52.66 36.78 70.49 36.78C88.32 36.78 102.8 50.48 102.8 67.36Z" id="bmEaKnV75"></path><path d="M139.45 63.61C139.45 66.11 137.42 68.15 134.91 68.15C132.4 68.15 130.36 66.11 130.36 63.61C130.36 61.1 132.4 59.06 134.91 59.06C137.42 59.06 139.45 61.1 139.45 63.61Z" id="ewZbp6GJu"></path><path d="M185.31 100L137.24 100L97.06 134.27L20.28 134.27" id="bXVLWLWPP"></path><path d="M154.04 62.81C154.04 65.32 152.01 67.36 149.5 67.36C146.99 67.36 144.95 65.32 144.95 62.81C144.95 60.31 146.99 58.27 149.5 58.27C152.01 58.27 154.04 60.31 154.04 62.81Z" id="fcGmQkHSq"></path><path d="M171.01 62.81C171.01 65.32 168.98 67.36 166.47 67.36C163.96 67.36 161.92 65.32 161.92 62.81C161.92 60.31 163.96 58.27 166.47 58.27C168.98 58.27 171.01 60.31 171.01 62.81Z" id="blUY4eOhI"></path><path d="M61.26 52.67C61.26 55.76 58.75 58.27 55.66 58.27C52.58 58.27 50.07 55.76 50.07 52.67C50.07 49.59 52.58 47.08 55.66 47.08C58.75 47.08 61.26 49.59 61.26 52.67Z" id="eowftlxxD"></path></defs><g><g><g><use xlink:href="#h233RgQUGS" opacity="1" fill="#de365b" fill-opacity="1"></use><g><use xlink:href="#h233RgQUGS" opacity="1" fill-opacity="0" stroke="#333333" stroke-width="9" stroke-opacity="1"></use></g></g><g><use xlink:href="#bmEaKnV75" opacity="1" fill="#5dbde8" fill-opacity="1"></use><g><use xlink:href="#bmEaKnV75" opacity="1" fill-opacity="0" stroke="#333333" stroke-width="6" stroke-opacity="1"></use></g></g><g><use xlink:href="#ewZbp6GJu" opacity="1" fill="#333333" fill-opacity="1"></use></g><g><g><use xlink:href="#bXVLWLWPP" opacity="1" fill-opacity="0" stroke="#333333" stroke-width="18" stroke-opacity="1"></use></g></g><g><use xlink:href="#fcGmQkHSq" opacity="1" fill="#333333" fill-opacity="1"></use></g><g><use xlink:href="#blUY4eOhI" opacity="1" fill="#333333" fill-opacity="1"></use></g><g><use xlink:href="#eowftlxxD" opacity="1" fill="#efece4" fill-opacity="1"></use></g></g></g></svg>