<svg width="512" height="512" xmlns="http://www.w3.org/2000/svg">

 <g>
  <title>background</title>
  <rect fill="none" id="canvas_background" height="402" width="582" y="-1" x="-1"/>
 </g>
 <g>
  <title>Layer 1</title>
  <path fill="#ffffff" id="svg_1" d="m408.207,150.644c-12.984,12.954 -33.993,12.954 -46.979,0c-12.955,-12.955 -12.955,-33.995 0,-46.981l93.931,-93.931c12.986,-12.955 33.995,-12.955 46.981,0c12.954,12.955 12.954,33.995 0,46.98l-93.933,93.932zm-152.336,361.083l-127.863,-127.864l-95.898,0c-17.669,0 -31.966,-14.299 -31.966,-31.967l0,-191.794c0,-17.668 14.297,-31.966 31.966,-31.966l95.897,0l127.864,-127.864c0,0 31.966,-3.996 31.966,31.966c0,191.233 0,478.926 0,447.522c0,35.962 -31.966,31.967 -31.966,31.967zm-31.966,-383.591l-63.932,63.932l-95.897,0l0,127.864l95.896,0l63.932,63.933l0,-255.729l0.001,0zm159.829,159.829c-17.669,0 -31.966,-14.297 -31.966,-31.966c0,-17.668 14.297,-31.966 31.966,-31.966l95.897,0c17.669,0 31.966,14.298 31.966,31.966c0,17.669 -14.297,31.966 -31.966,31.966l-95.897,0zm24.473,73.39l93.933,93.931c12.954,12.986 12.954,34.026 0,46.98c-12.986,12.955 -33.995,12.955 -46.981,0l-93.931,-93.931c-12.955,-12.986 -12.955,-34.025 0,-46.98c12.986,-12.955 33.995,-12.955 46.979,0z"/>
 </g>
</svg>