<?xml version="1.0" encoding="UTF-8" standalone="no"?>
<!DOCTYPE svg PUBLIC "-//W3C//DTD SVG 1.1//EN" "http://www.w3.org/Graphics/SVG/1.1/DTD/svg11.dtd">
<svg version="1.1" xmlns="http://www.w3.org/2000/svg" xmlns:xlink="http://www.w3.org/1999/xlink" preserveAspectRatio="xMidYMid meet" viewBox="0 0 150 150" width="150" height="150"><defs><path d="M80.89 23.73L82.78 23.93L84.65 24.2L86.51 24.55L88.36 24.97L90.19 25.45L92 26.01L93.79 26.64L95.56 27.33L97.3 28.1L99.02 28.93L100.71 29.83L102.36 30.8L103.98 31.84L105.57 32.94L107.11 34.12L108.62 35.35L110.08 36.66L111.5 38.02L112.87 39.46L114.19 40.96L115.46 42.52L116.67 44.15L116.9 44.48L36.71 101.83L36.47 101.51L35.33 99.83L34.26 98.13L33.26 96.39L32.35 94.63L31.51 92.85L30.75 91.04L30.07 89.22L29.46 87.38L28.93 85.52L28.47 83.65L28.09 81.77L27.78 79.88L27.54 77.99L27.38 76.09L27.3 74.19L27.28 72.3L27.34 70.4L27.47 68.51L27.67 66.63L27.95 64.76L28.29 62.89L28.71 61.05L29.2 59.22L29.76 57.4L30.38 55.61L31.08 53.84L31.84 52.1L32.68 50.38L33.58 48.7L34.55 47.04L35.58 45.42L36.69 43.84L37.86 42.29L39.1 40.78L40.4 39.32L41.77 37.9L43.2 36.53L44.7 35.21L46.27 33.94L47.89 32.73L49.57 31.58L51.28 30.51L53.01 29.52L54.77 28.61L56.56 27.77L58.36 27.01L60.19 26.32L62.03 25.71L63.88 25.18L65.75 24.72L67.63 24.34L69.52 24.03L71.41 23.8L73.31 23.64L75.21 23.55L77.11 23.54L79 23.6L80.89 23.73Z" id="b1ofv2Ulek"></path><path d="M118.29 46.47L119.36 48.18L120.35 49.91L121.26 51.67L122.1 53.46L122.86 55.26L123.55 57.09L124.15 58.93L124.69 60.79L125.14 62.66L125.53 64.54L125.83 66.42L126.07 68.32L126.23 70.21L126.32 72.11L126.33 74.01L126.27 75.91L126.14 77.8L125.94 79.68L125.66 81.55L125.32 83.41L124.9 85.26L124.41 87.09L123.86 88.9L123.23 90.7L122.53 92.46L121.77 94.21L120.94 95.92L120.03 97.61L119.07 99.27L118.03 100.89L116.92 102.47L115.75 104.02L114.52 105.52L113.21 106.99L111.84 108.4L110.41 109.77L108.91 111.09L107.35 112.36L105.72 113.58L104.04 114.73L102.34 115.8L100.6 116.79L98.84 117.7L97.06 118.54L95.25 119.3L93.43 119.98L91.59 120.59L89.73 121.13L87.86 121.58L85.98 121.97L84.09 122.27L82.2 122.51L80.3 122.67L78.4 122.76L76.5 122.77L74.61 122.71L72.72 122.58L70.84 122.38L68.96 122.1L67.1 121.76L65.26 121.34L63.42 120.85L61.61 120.3L59.82 119.67L58.05 118.97L56.31 118.21L54.59 117.38L52.91 116.47L51.25 115.5L49.63 114.47L48.04 113.36L46.5 112.19L44.99 110.96L43.53 109.65L42.11 108.28L40.74 106.85L39.42 105.35L38.15 103.79L36.94 102.16L36.71 101.83L116.9 44.48L117.14 44.8L118.29 46.47Z" id="ab8nroM9Z"></path><path d="M83.6 80.05C79.31 83.12 73.33 82.13 70.26 77.84C67.19 73.54 68.18 67.57 72.47 64.5C76.77 61.43 82.74 62.42 85.81 66.71C88.88 71 87.89 76.98 83.6 80.05Z" id="flHCpDRuu"></path></defs><g><g><g><use xlink:href="#b1ofv2Ulek" opacity="1" fill="#d8b1b1" fill-opacity="1"></use><g><use xlink:href="#b1ofv2Ulek" opacity="1" fill-opacity="0" stroke="#dddddd" stroke-width="10" stroke-opacity="1"></use></g></g><g><g><use xlink:href="#ab8nroM9Z" opacity="1" fill-opacity="0" stroke="#dddddd" stroke-width="10" stroke-opacity="1"></use></g></g><g><use xlink:href="#flHCpDRuu" opacity="1" fill="#ffffff" fill-opacity="1"></use><g><use xlink:href="#flHCpDRuu" opacity="1" fill-opacity="0" stroke="#dddddd" stroke-width="10" stroke-opacity="1"></use></g></g></g></g></svg>