<?xml version="1.0" encoding="UTF-8" standalone="no"?>
<!DOCTYPE svg PUBLIC "-//W3C//DTD SVG 1.1//EN" "http://www.w3.org/Graphics/SVG/1.1/DTD/svg11.dtd">
<svg version="1.1" xmlns="http://www.w3.org/2000/svg" xmlns:xlink="http://www.w3.org/1999/xlink" preserveAspectRatio="xMidYMid meet" viewBox="0 0 150 150" width="150" height="150"><defs><path d="M126.29 72.9C126.29 100.11 104.2 122.2 76.99 122.2C49.78 122.2 27.69 100.11 27.69 72.9C27.69 45.69 49.78 23.6 76.99 23.6C104.2 23.6 126.29 45.69 126.29 72.9Z" id="aPGwLl5pI"></path><path d="M43.57 105.68L109.9 41.14" id="a5rH0HL7l"></path><path d="M91.81 56.68L91.81 29.19" id="a1uoVcESC"></path><path d="M79.56 68.03L79.56 26.2" id="f5xyVeBYL"></path><path d="M66.79 29.19L66.79 78.19" id="bqfwy0Go8"></path><path d="M53.82 93.73L53.82 34.57" id="biNmowGiN"></path><path d="M40.84 99.45L40.84 46.26" id="c1PZt8R5Wy"></path><path d="M86.55 72.9C86.55 78.18 82.27 82.46 76.99 82.46C71.72 82.46 67.43 78.18 67.43 72.9C67.43 67.63 71.72 63.34 76.99 63.34C82.27 63.34 86.55 67.63 86.55 72.9Z" id="a6U597qtI0"></path></defs><g><g><g><use xlink:href="#aPGwLl5pI" opacity="1" fill="#ffffff" fill-opacity="1"></use><g><use xlink:href="#aPGwLl5pI" opacity="1" fill-opacity="0" stroke="#dddddd" stroke-width="10" stroke-opacity="1"></use></g></g><g><use xlink:href="#a5rH0HL7l" opacity="1" fill="#fff5d3" fill-opacity="1"></use><g><use xlink:href="#a5rH0HL7l" opacity="1" fill-opacity="0" stroke="#dddddd" stroke-width="10" stroke-opacity="1"></use></g></g><g><g><use xlink:href="#a1uoVcESC" opacity="1" fill-opacity="0" stroke="#dddddd" stroke-width="2" stroke-opacity="1"></use></g></g><g><g><use xlink:href="#f5xyVeBYL" opacity="1" fill-opacity="0" stroke="#dddddd" stroke-width="2" stroke-opacity="1"></use></g></g><g><g><use xlink:href="#bqfwy0Go8" opacity="1" fill-opacity="0" stroke="#dddddd" stroke-width="2" stroke-opacity="1"></use></g></g><g><g><use xlink:href="#biNmowGiN" opacity="1" fill-opacity="0" stroke="#dddddd" stroke-width="2" stroke-opacity="1"></use></g></g><g><g><use xlink:href="#c1PZt8R5Wy" opacity="1" fill-opacity="0" stroke="#dddddd" stroke-width="2" stroke-opacity="1"></use></g></g><g><use xlink:href="#a6U597qtI0" opacity="1" fill="#ffffff" fill-opacity="1"></use><g><use xlink:href="#a6U597qtI0" opacity="1" fill-opacity="0" stroke="#dddddd" stroke-width="10" stroke-opacity="1"></use></g></g></g></g></svg>