<?xml version="1.0" encoding="UTF-8" standalone="no"?>
<!DOCTYPE svg PUBLIC "-//W3C//DTD SVG 1.1//EN" "http://www.w3.org/Graphics/SVG/1.1/DTD/svg11.dtd">
<svg version="1.1" xmlns="http://www.w3.org/2000/svg" xmlns:xlink="http://www.w3.org/1999/xlink" preserveAspectRatio="xMidYMid meet" viewBox="0 0 200 200" width="200" height="200"><defs><path d="M112.76 41.86L114.93 42.36L117.07 42.92L119.19 43.57L121.28 44.31L123.35 45.12L125.39 46.02L127.4 46.99L129.38 48.05L131.31 49.18L133.21 50.4L135.07 51.68L136.87 53.07L138.63 54.51L140.34 56.04L142 57.63L143.61 59.32L145.15 61.07L146.64 62.9L148.06 64.81L148.33 65.19L54.47 132.31L54.19 131.94L52.86 129.97L51.61 127.98L50.44 125.94L49.37 123.88L48.39 121.8L47.5 119.68L46.71 117.55L45.99 115.4L45.37 113.22L44.83 111.03L44.39 108.83L44.02 106.63L43.74 104.41L43.56 102.19L43.46 99.96L43.44 97.75L43.51 95.53L43.66 93.31L43.89 91.12L44.22 88.93L44.62 86.74L45.11 84.59L45.69 82.44L46.34 80.31L47.07 78.22L47.89 76.14L48.78 74.11L49.76 72.1L50.81 70.13L51.95 68.19L53.15 66.29L54.45 64.44L55.82 62.63L57.27 60.86L58.8 59.15L60.39 57.49L62.07 55.88L63.83 54.35L65.67 52.86L67.56 51.44L69.52 50.09L71.53 48.84L73.55 47.68L75.61 46.62L77.71 45.64L79.82 44.75L81.95 43.94L84.11 43.22L86.28 42.61L88.47 42.07L90.66 41.62L92.87 41.26L95.09 40.99L97.31 40.8L99.54 40.7L101.76 40.68L103.97 40.75L106.18 40.9L108.39 41.14L110.58 41.46L112.76 41.86Z" id="c2Q37Bg8I6"></path><path d="M153.67 73.74L154.65 75.83L155.54 77.94L156.35 80.08L157.05 82.24L157.69 84.41L158.21 86.6L158.67 88.8L159.02 91L159.3 93.22L159.49 95.44L159.59 97.66L159.6 99.88L159.53 102.11L159.38 104.32L159.15 106.52L158.82 108.71L158.42 110.88L157.93 113.05L157.36 115.19L156.71 117.31L155.98 119.42L155.15 121.48L154.26 123.53L153.3 125.53L152.23 127.5L151.11 129.45L149.89 131.34L148.59 133.19L147.22 135.01L145.78 136.76L144.25 138.48L142.65 140.13L140.97 141.74L139.22 143.28L137.39 144.77L135.48 146.2L133.52 147.54L131.52 148.79L129.49 149.95L127.43 151.02L125.35 152L123.23 152.89L121.1 153.68L118.95 154.4L116.77 155.03L114.58 155.56L112.38 156.02L110.17 156.37L107.95 156.65L105.73 156.83L103.51 156.94L101.28 156.95L99.07 156.88L96.86 156.73L94.66 156.5L92.46 156.16L90.28 155.77L88.13 155.27L85.98 154.7L83.85 154.06L81.76 153.32L79.69 152.5L77.65 151.61L75.64 150.64L73.67 149.58L71.73 148.44L69.84 147.24L67.98 145.94L66.17 144.57L64.41 143.13L62.7 141.59L61.04 139.99L59.43 138.32L57.89 136.56L56.4 134.74L54.98 132.83L54.71 132.44L148.57 65.32L148.85 65.7L150.19 67.65L151.45 69.65L152.6 71.68L153.67 73.74Z" id="g2froDBtew"></path><path d="M110.78 92.31C114.37 97.33 113.21 104.33 108.2 107.92C103.18 111.52 96.18 110.35 92.58 105.34C88.99 100.3 90.15 93.32 95.17 89.72C100.2 86.13 107.19 87.29 110.78 92.31Z" id="a2a4wTiA7L"></path></defs><g><g><g><use xlink:href="#c2Q37Bg8I6" opacity="1" fill="#a7a2a2" fill-opacity="1"></use><g><use xlink:href="#c2Q37Bg8I6" opacity="1" fill-opacity="0" stroke="#4d4c4c" stroke-width="7" stroke-opacity="1"></use></g></g><g><use xlink:href="#g2froDBtew" opacity="1" fill="#f9f5f5" fill-opacity="1"></use><g><use xlink:href="#g2froDBtew" opacity="1" fill-opacity="0" stroke="#4d4c4c" stroke-width="7" stroke-opacity="1"></use></g></g><g><use xlink:href="#a2a4wTiA7L" opacity="1" fill="#ffffff" fill-opacity="1"></use><g><use xlink:href="#a2a4wTiA7L" opacity="1" fill-opacity="0" stroke="#4d4c4c" stroke-width="7" stroke-opacity="1"></use></g></g></g></g></svg>